REM DIRINDEX 1\5,1\2\6,1\2\7,1\3\8,1\3\9,1\3\10,1\3\11,1\4\12,1\4\13,1\4\14
REM DIRNAME cjc042,folder01,folder02,folder03,folder04,folder05,folder06,folder07,folder08,folder09,folder10,folder11,folder12,folder13
TITLE ""
FILE "4Q_j_589-596.mp3" MP3
  TRACK 01 AUDIO
    TITLE "5:cjc042_0608"
    INDEX 01 00:00:00
  TRACK 02 AUDIO
    TITLE "0:"
    INDEX 01 00:03:43
  TRACK 03 AUDIO
    TITLE "8:cjc042_0609"
    INDEX 01 00:04:19
  TRACK 04 AUDIO
    TITLE "0:"
    INDEX 01 00:05:57
  TRACK 05 AUDIO
    TITLE "9:cjc042_0610"
    INDEX 01 00:06:37
  TRACK 06 AUDIO
    TITLE "0:"
    INDEX 01 00:08:40
  TRACK 07 AUDIO
    TITLE "10:cjc042_0611"
    INDEX 01 00:09:20
  TRACK 08 AUDIO
    TITLE "0:"
    INDEX 01 00:12:16
  TRACK 09 AUDIO
    TITLE "11:cjc042_0612"
    INDEX 01 00:12:69
  TRACK 10 AUDIO
    TITLE "0:"
    INDEX 01 00:15:50
  TRACK 11 AUDIO
    TITLE "8:cjc042_0613"
    INDEX 01 00:16:26
  TRACK 12 AUDIO
    TITLE "0:"
    INDEX 01 00:20:10
  TRACK 13 AUDIO
    TITLE "9:cjc042_0614"
    INDEX 01 00:20:67
  TRACK 14 AUDIO
    TITLE "0:"
    INDEX 01 00:24:16
  TRACK 15 AUDIO
    TITLE "10:cjc042_0615"
    INDEX 01 00:24:71
  TRACK 16 AUDIO
    TITLE "0:"
    INDEX 01 00:28:55
  TRACK 17 AUDIO
    TITLE "11:cjc042_0616"
    INDEX 01 00:29:34
  TRACK 18 AUDIO
    TITLE "0:"
    INDEX 01 00:32:64
  TRACK 19 AUDIO
    TITLE "8:cjc042_0617"
    INDEX 01 00:33:44
  TRACK 20 AUDIO
    TITLE "0:"
    INDEX 01 00:37:14
  TRACK 21 AUDIO
    TITLE "9:cjc042_0618"
    INDEX 01 00:37:65
  TRACK 22 AUDIO
    TITLE "0:"
    INDEX 01 00:40:52
  TRACK 23 AUDIO
    TITLE "10:cjc042_0619"
    INDEX 01 00:41:28
  TRACK 24 AUDIO
    TITLE "0:"
    INDEX 01 00:44:46
  TRACK 25 AUDIO
    TITLE "11:cjc042_0620"
    INDEX 01 00:45:32
  TRACK 26 AUDIO
    TITLE "0:"
    INDEX 01 00:49:08
  TRACK 27 AUDIO
    TITLE "8:cjc042_0621"
    INDEX 01 00:49:63
  TRACK 28 AUDIO
    TITLE "0:"
    INDEX 01 00:51:71
  TRACK 29 AUDIO
    TITLE "9:cjc042_0622"
    INDEX 01 00:52:47
  TRACK 30 AUDIO
    TITLE "0:"
    INDEX 01 00:57:39
  TRACK 31 AUDIO
    TITLE "10:cjc042_0623"
    INDEX 01 00:58:17
  TRACK 32 AUDIO
    TITLE "0:"
    INDEX 01 01:02:14
  TRACK 33 AUDIO
    TITLE "11:cjc042_0624"
    INDEX 01 01:02:69
  TRACK 34 AUDIO
    TITLE "0:"
    INDEX 01 01:07:57
  TRACK 35 AUDIO
    TITLE "8:cjc042_0625"
    INDEX 01 01:08:35
  TRACK 36 AUDIO
    TITLE "0:"
    INDEX 01 01:10:20
  TRACK 37 AUDIO
    TITLE "9:cjc042_0626"
    INDEX 01 01:11:02
  TRACK 38 AUDIO
    TITLE "0:"
    INDEX 01 01:13:08
  TRACK 39 AUDIO
    TITLE "10:cjc042_0627"
    INDEX 01 01:13:67
  TRACK 40 AUDIO
    TITLE "0:"
    INDEX 01 01:17:41
  TRACK 41 AUDIO
    TITLE "11:cjc042_0628"
    INDEX 01 01:18:21
  TRACK 42 AUDIO
    TITLE "0:"
    INDEX 01 01:22:50
  TRACK 43 AUDIO
    TITLE "8:cjc042_0629"
    INDEX 01 01:23:26
  TRACK 44 AUDIO
    TITLE "0:"
    INDEX 01 01:24:59
  TRACK 45 AUDIO
    TITLE "9:cjc042_0630"
    INDEX 01 01:25:35
  TRACK 46 AUDIO
    TITLE "0:"
    INDEX 01 01:27:10
  TRACK 47 AUDIO
    TITLE "10:cjc042_0631"
    INDEX 01 01:27:63
  TRACK 48 AUDIO
    TITLE "0:"
    INDEX 01 01:30:46
  TRACK 49 AUDIO
    TITLE "11:cjc042_0632"
    INDEX 01 01:31:41
  TRACK 50 AUDIO
    TITLE "0:"
    INDEX 01 01:34:61
  TRACK 51 AUDIO
    TITLE "8:cjc042_0633"
    INDEX 01 01:35:39
  TRACK 52 AUDIO
    TITLE "0:"
    INDEX 01 01:36:60
  TRACK 53 AUDIO
    TITLE "9:cjc042_0634"
    INDEX 01 01:37:44
  TRACK 54 AUDIO
    TITLE "0:"
    INDEX 01 01:38:71
  TRACK 55 AUDIO
    TITLE "10:cjc042_0635"
    INDEX 01 01:39:53
  TRACK 56 AUDIO
    TITLE "0:"
    INDEX 01 01:42:63
  TRACK 57 AUDIO
    TITLE "11:cjc042_0636"
    INDEX 01 01:43:43
  TRACK 58 AUDIO
    TITLE "0:"
    INDEX 01 01:46:39
  TRACK 59 AUDIO
    TITLE "8:cjc042_0637"
    INDEX 01 01:47:13
  TRACK 60 AUDIO
    TITLE "0:"
    INDEX 01 01:49:02
  TRACK 61 AUDIO
    TITLE "9:cjc042_0638"
    INDEX 01 01:49:59
  TRACK 62 AUDIO
    TITLE "0:"
    INDEX 01 01:51:15
  TRACK 63 AUDIO
    TITLE "10:cjc042_0639"
    INDEX 01 01:51:66
  TRACK 64 AUDIO
    TITLE "0:"
    INDEX 01 01:55:09
  TRACK 65 AUDIO
    TITLE "11:cjc042_0640"
    INDEX 01 01:55:63
  TRACK 66 AUDIO
    TITLE "0:"
    INDEX 01 01:59:22
